<svg xmlns="http://www.w3.org/2000/svg" viewBox="0 0 15 12" width="15" height="12">
	<style>
		tspan { white-space:pre }
		.shp0 { fill: #9d99cb } 
	</style>
	<path id="Shape 6" class="shp0" d="M13.75,5.18l-4.02,-3.92c-0.37,-0.36 -0.97,-0.36 -1.34,0c-0.37,0.36 -0.37,0.95 0,1.31l2.57,2.49h-10.02c-0.52,0 -0.95,0.42 -0.95,0.93c0,0.51 0.42,0.93 0.95,0.93h10.02l-2.57,2.49c-0.37,0.36 -0.37,0.95 0,1.31c0.37,0.36 0.97,0.36 1.34,0l4.02,-3.92c0.23,-0.22 0.3,-0.53 0.25,-0.82c0.05,-0.29 -0.02,-0.59 -0.25,-0.82z" />
</svg>